{
  "accessors": [
    {
      "bufferView": 2,
      "componentType": 5126,
      "count": 30,
      "max": [
        0.06000000610947609,
        0.06000000610947609,
        0.00750000448897481
      ],
      "min": [
        -0.06000000610947609,
        -0.06000000610947609,
        -4.6566128730773926e-09
      ],
      "type": "VEC3"
    },
    {
      "bufferView": 2,
      "byteOffset": 360,
      "componentType": 5126,
      "count": 30,
      "max": [
        1.0,
        1.0,
        1.0
      ],
      "min": [
        -1.0,
        -1.0,
        -1.0
      ],
      "type": "VEC3"
    },
    {
      "bufferView": 1,
      "componentType": 5126,
      "count": 30,
      "max": [
        0.5,
        0.99609375
      ],
      "min": [
        0.0,
        0.75
      ],
      "type": "VEC2"
    },
    {
      "bufferView": 0,
      "componentType": 5125,
      "count": 48,
      "type": "SCALAR"
    },
    {
      "bufferView": 2,
      "byteOffset": 720,
      "componentType": 5126,
      "count": 30,
      "max": [
        0.06000000610947609,
        0.06000000610947609,
        0.00750000448897481
      ],
      "min": [
        -0.06000000610947609,
        -0.06000000610947609,
        -4.6566128730773926e-09
      ],
      "type": "VEC3"
    },
    {
      "bufferView": 2,
      "byteOffset": 1080,
      "componentType": 5126,
      "count": 30,
      "max": [
        1.0,
        1.0,
        1.0
      ],
      "min": [
        -1.0,
        -1.0,
        -1.0
      ],
      "type": "VEC3"
    },
    {
      "bufferView": 1,
      "byteOffset": 240,
      "componentType": 5126,
      "count": 30,
      "max": [
        0.5,
        0.74609375
      ],
      "min": [
        0.0,
        0.5
      ],
      "type": "VEC2"
    },
    {
      "bufferView": 0,
      "byteOffset": 192,
      "componentType": 5125,
      "count": 48,
      "type": "SCALAR"
    },
    {
      "bufferView": 2,
      "byteOffset": 1440,
      "componentType": 5126,
      "count": 30,
      "max": [
        0.06000000610947609,
        0.06000000610947609,
        0.00750000448897481
      ],
      "min": [
        -0.06000000610947609,
        -0.06000000610947609,
        -4.6566128730773926e-09
      ],
      "type": "VEC3"
    },
    {
      "bufferView": 2,
      "byteOffset": 1800,
      "componentType": 5126,
      "count": 30,
      "max": [
        1.0,
        1.0,
        1.0
      ],
      "min": [
        -1.0,
        -1.0,
        -1.0
      ],
      "type": "VEC3"
    },
    {
      "bufferView": 1,
      "byteOffset": 480,
      "componentType": 5126,
      "count": 30,
      "max": [
        1.0,
        0.99609375
      ],
      "min": [
        0.5,
        0.75
      ],
      "type": "VEC2"
    },
    {
      "bufferView": 0,
      "byteOffset": 384,
      "componentType": 5125,
      "count": 48,
      "type": "SCALAR"
    },
    {
      "bufferView": 2,
      "byteOffset": 2160,
      "componentType": 5126,
      "count": 30,
      "max": [
        0.06000000610947609,
        0.06000000610947609,
        0.00750000448897481
      ],
      "min": [
        -0.06000000610947609,
        -0.06000000610947609,
        -4.6566128730773926e-09
      ],
      "type": "VEC3"
    },
    {
      "bufferView": 2,
      "byteOffset": 2520,
      "componentType": 5126,
      "count": 30,
      "max": [
        1.0,
        1.0,
        1.0
      ],
      "min": [
        -1.0,
        -1.0,
        -1.0
      ],
      "type": "VEC3"
    },
    {
      "bufferView": 1,
      "byteOffset": 720,
      "componentType": 5126,
      "count": 30,
      "max": [
        1.0,
        0.74609375
      ],
      "min": [
        0.5,
        0.5
      ],
      "type": "VEC2"
    },
    {
      "bufferView": 0,
      "byteOffset": 576,
      "componentType": 5125,
      "count": 48,
      "type": "SCALAR"
    },
    {
      "bufferView": 2,
      "byteOffset": 2880,
      "componentType": 5126,
      "count": 24,
      "max": [
        0.12000001966953278,
        0.30000001192092896,
        0.6000000238418579
      ],
      "min": [
        -0.12000001966953278,
        -0.30000001192092896,
        0.0
      ],
      "type": "VEC3"
    },
    {
      "bufferView": 2,
      "byteOffset": 3168,
      "componentType": 5126,
      "count": 24,
      "max": [
        1.0,
        1.0,
        1.0
      ],
      "min": [
        -1.0,
        -1.0,
        -1.0
      ],
      "type": "VEC3"
    },
    {
      "bufferView": 1,
      "byteOffset": 960,
      "componentType": 5126,
      "count": 24,
      "max": [
        1.0,
        1.0
      ],
      "min": [
        0.0,
        -2.9802322387695313e-08
      ],
      "type": "VEC2"
    },
    {
      "bufferView": 0,
      "byteOffset": 768,
      "componentType": 5125,
      "count": 36,
      "type": "SCALAR"
    },
    {
      "bufferView": 2,
      "byteOffset": 3456,
      "componentType": 5126,
      "count": 24,
      "max": [
        0.30000001192092896,
        0.10500002652406693,
        0.030000001192092896
      ],
      "min": [
        -0.30000001192092896,
        -0.10500002652406693,
        0.0
      ],
      "type": "VEC3"
    },
    {
      "bufferView": 2,
      "byteOffset": 3744,
      "componentType": 5126,
      "count": 24,
      "max": [
        1.0,
        1.0,
        0.9970157742500305
      ],
      "min": [
        -1.0,
        -1.0,
        -1.0
      ],
      "type": "VEC3"
    },
    {
      "bufferView": 1,
      "byteOffset": 1152,
      "componentType": 5126,
      "count": 24,
      "max": [
        1.0,
        0.7184991836547852
      ],
      "min": [
        0.0,
        0.0
      ],
      "type": "VEC2"
    },
    {
      "bufferView": 0,
      "byteOffset": 912,
      "componentType": 5125,
      "count": 36,
      "type": "SCALAR"
    },
    {
      "bufferView": 2,
      "byteOffset": 4032,
      "componentType": 5126,
      "count": 140,
      "max": [
        0.24000002443790436,
        0.2879999876022339,
        0.5400000214576721
      ],
      "min": [
        -0.24000000953674316,
        -0.2160000205039978,
        0.0
      ],
      "type": "VEC3"
    },
    {
      "bufferView": 2,
      "byteOffset": 5712,
      "componentType": 5126,
      "count": 140,
      "max": [
        1.0,
        1.0,
        1.0
      ],
      "min": [
        -1.0,
        -1.0,
        -1.0
      ],
      "type": "VEC3"
    },
    {
      "bufferView": 1,
      "byteOffset": 1344,
      "componentType": 5126,
      "count": 140,
      "max": [
        0.9606249928474426,
        1.0
      ],
      "min": [
        -1.4901161193847656e-08,
        0.08749997615814209
      ],
      "type": "VEC2"
    },
    {
      "bufferView": 0,
      "byteOffset": 1056,
      "componentType": 5125,
      "count": 222,
      "type": "SCALAR"
    },
    {
      "bufferView": 2,
      "byteOffset": 7392,
      "componentType": 5126,
      "count": 57,
      "max": [
        0.03677492216229439,
        0.06392048299312592,
        0.03299998864531517
      ],
      "min": [
        -0.03665429353713989,
        -0.06356492638587952,
        0.0
      ],
      "type": "VEC3"
    },
    {
      "bufferView": 2,
      "byteOffset": 8076,
      "componentType": 5126,
      "count": 57,
      "max": [
        0.9585847854614258,
        0.8850751519203186,
        0.9877887964248657
      ],
      "min": [
        -0.9597977995872498,
        -0.9027147889137268,
        -1.0
      ],
      "type": "VEC3"
    },
    {
      "bufferView": 1,
      "byteOffset": 2464,
      "componentType": 5126,
      "count": 57,
      "max": [
        0.897551953792572,
        0.916351318359375
      ],
      "min": [
        0.07499862462282181,
        0.7540699243545532
      ],
      "type": "VEC2"
    },
    {
      "bufferView": 0,
      "byteOffset": 1944,
      "componentType": 5125,
      "count": 96,
      "type": "SCALAR"
    }
  ],
  "asset": {
    "extras": {
      "author": "Tomitos (https://sketchfab.com/designrobco)",
      "license": "CC-BY-4.0 (http://creativecommons.org/licenses/by/4.0/)",
      "source": "https://sketchfab.com/3d-models/psx-retro-computer-7e7f8a9dfa1f4b34abde94bb02b9f46c",
      "title": "PSX Retro Computer"
    },
    "generator": "Sketchfab-16.72.0",
    "version": "2.0"
  },
  "bufferViews": [
    {
      "buffer": 0,
      "byteLength": 2328,
      "name": "floatBufferViews",
      "target": 34963
    },
    {
      "buffer": 0,
      "byteLength": 2920,
      "byteOffset": 2328,
      "byteStride": 8,
      "name": "floatBufferViews",
      "target": 34962
    },
    {
      "buffer": 0,
      "byteLength": 8760,
      "byteOffset": 5248,
      "byteStride": 12,
      "name": "floatBufferViews",
      "target": 34962
    }
  ],
  "buffers": [
    {
      "byteLength": 14008,
      "uri": "scene.bin"
    }
  ],
  "extensionsUsed": [
    "KHR_materials_specular"
  ],
  "images": [
    {
      "uri": "textures/M_FloppyDisk_baseColor.png"
    },
    {
      "uri": "textures/M_RetroComputer_baseColor.png"
    },
    {
      "uri": "textures/M_RetroKeyboardMouse_baseColor.png"
    },
    {
      "uri": "textures/M_RetroMonitor_baseColor.png"
    }
  ],
  "materials": [
    {
      "doubleSided": true,
      "extensions": {
        "KHR_materials_specular": {
          "specularColorFactor": [
            1.0,
            1.0,
            1.0
          ],
          "specularFactor": 0.0
        }
      },
      "name": "M_FloppyDisk",
      "pbrMetallicRoughness": {
        "baseColorTexture": {
          "index": 0
        },
        "metallicFactor": 0.0
      }
    },
    {
      "doubleSided": true,
      "extensions": {
        "KHR_materials_specular": {
          "specularColorFactor": [
            1.0,
            1.0,
            1.0
          ],
          "specularFactor": 0.0
        }
      },
      "name": "M_RetroComputer",
      "pbrMetallicRoughness": {
        "baseColorTexture": {
          "index": 1
        },
        "metallicFactor": 0.0
      }
    },
    {
      "doubleSided": true,
      "extensions": {
        "KHR_materials_specular": {
          "specularColorFactor": [
            1.0,
            1.0,
            1.0
          ],
          "specularFactor": 0.0
        }
      },
      "name": "M_RetroKeyboardMouse",
      "pbrMetallicRoughness": {
        "baseColorTexture": {
          "index": 2
        },
        "metallicFactor": 0.0
      }
    },
    {
      "doubleSided": true,
      "extensions": {
        "KHR_materials_specular": {
          "specularColorFactor": [
            1.0,
            1.0,
            1.0
          ],
          "specularFactor": 0.0
        }
      },
      "name": "M_RetroMonitor",
      "pbrMetallicRoughness": {
        "baseColorTexture": {
          "index": 3
        },
        "metallicFactor": 0.0
      }
    }
  ],
  "meshes": [
    {
      "name": "FloppyDisk_Black_M_FloppyDisk_0",
      "primitives": [
        {
          "attributes": {
            "NORMAL": 1,
            "POSITION": 0,
            "TEXCOORD_0": 2
          },
          "indices": 3,
          "material": 0,
          "mode": 4
        }
      ]
    },
    {
      "name": "FloppyDisk_Blue_M_FloppyDisk_0",
      "primitives": [
        {
          "attributes": {
            "NORMAL": 5,
            "POSITION": 4,
            "TEXCOORD_0": 6
          },
          "indices": 7,
          "material": 0,
          "mode": 4
        }
      ]
    },
    {
      "name": "FloppyDisk_Green_M_FloppyDisk_0",
      "primitives": [
        {
          "attributes": {
            "NORMAL": 9,
            "POSITION": 8,
            "TEXCOORD_0": 10
          },
          "indices": 11,
          "material": 0,
          "mode": 4
        }
      ]
    },
    {
      "name": "FloppyDisk_Red_M_FloppyDisk_0",
      "primitives": [
        {
          "attributes": {
            "NORMAL": 13,
            "POSITION": 12,
            "TEXCOORD_0": 14
          },
          "indices": 15,
          "material": 0,
          "mode": 4
        }
      ]
    },
    {
      "name": "RetroComputer_M_RetroComputer_0",
      "primitives": [
        {
          "attributes": {
            "NORMAL": 17,
            "POSITION": 16,
            "TEXCOORD_0": 18
          },
          "indices": 19,
          "material": 1,
          "mode": 4
        }
      ]
    },
    {
      "name": "RetroKeyboard_M_RetroKeyboardMouse_0",
      "primitives": [
        {
          "attributes": {
            "NORMAL": 21,
            "POSITION": 20,
            "TEXCOORD_0": 22
          },
          "indices": 23,
          "material": 2,
          "mode": 4
        }
      ]
    },
    {
      "name": "RetroMonitor_M_RetroMonitor_0",
      "primitives": [
        {
          "attributes": {
            "NORMAL": 25,
            "POSITION": 24,
            "TEXCOORD_0": 26
          },
          "indices": 27,
          "material": 3,
          "mode": 4
        }
      ]
    },
    {
      "name": "RetroMouse_M_RetroKeyboardMouse_0",
      "primitives": [
        {
          "attributes": {
            "NORMAL": 29,
            "POSITION": 28,
            "TEXCOORD_0": 30
          },
          "indices": 31,
          "material": 2,
          "mode": 4
        }
      ]
    }
  ],
  "nodes": [
    {
      "children": [
        1
      ],
      "matrix": [
        1.0,
        0.0,
        0.0,
        0.0,
        0.0,
        2.220446049250313e-16,
        -1.0,
        0.0,
        0.0,
        1.0,
        2.220446049250313e-16,
        0.0,
        0.0,
        0.0,
        0.0,
        1.0
      ],
      "name": "Sketchfab_model"
    },
    {
      "children": [
        2
      ],
      "matrix": [
        0.009999999776482582,
        0.0,
        0.0,
        0.0,
        0.0,
        0.0,
        0.009999999776482582,
        0.0,
        0.0,
        -0.009999999776482582,
        0.0,
        0.0,
        0.0,
        0.0,
        0.0,
        1.0
      ],
      "name": "5354bf2da2354eb2882d2f15fe078b7a.fbx"
    },
    {
      "children": [
        3,
        5,
        7,
        9,
        11,
        13,
        15,
        17
      ],
      "name": "RootNode"
    },
    {
      "children": [
        4
      ],
      "matrix": [
        99.61946229587397,
        -8.715572614699171,
        3.6768387679847964e-07,
        0.0,
        -1.0536623622214858e-06,
        -1.626211747485229e-05,
        -99.99999999999866,
        0.0,
        8.715572614699113,
        99.61946229587267,
        -1.6292066696197e-05,
        0.0,
        4.999999523162842,
        0.5000000596046448,
        76.0,
        1.0
      ],
      "name": "FloppyDisk_Black"
    },
    {
      "mesh": 0,
      "name": "FloppyDisk_Black_M_FloppyDisk_0"
    },
    {
      "children": [
        6
      ],
      "matrix": [
        64.03415943081372,
        -8.715577828304449,
        76.31294208132653,
        0.0,
        76.60444480669398,
        -9.867344408220902e-06,
        -64.27876037897806,
        0.0,
        5.602272917959983,
        99.61946949827964,
        6.676513688596897,
        0.0,
        17.5,
        0.5000000596046448,
        85.49999237060547,
        1.0
      ],
      "name": "FloppyDisk_Blue"
    },
    {
      "mesh": 1,
      "name": "FloppyDisk_Blue_M_FloppyDisk_0"
    },
    {
      "children": [
        8
      ],
      "matrix": [
        96.59258166901023,
        -2.7755575615628914e-15,
        -25.88190809263469,
        0.0,
        -25.881908092634344,
        -1.629206793918314e-05,
        -96.59258166900895,
        0.0,
        -4.2166980518398844e-06,
        99.99999999999866,
        -1.5736929026566315e-05,
        0.0,
        0.0,
        0.0,
        76.0,
        1.0
      ],
      "name": "FloppyDisk_Green"
    },
    {
      "mesh": 2,
      "name": "FloppyDisk_Green_M_FloppyDisk_0"
    },
    {
      "children": [
        10
      ],
      "matrix": [
        90.2858908898396,
        -8.715571918960958,
        42.10101170369365,
        0.0,
        42.261833372922695,
        -6.525964502124282e-06,
        -90.63077534678425,
        0.0,
        7.8989937562033985,
        99.61946995710535,
        3.683354870880995,
        0.0,
        12.5,
        0.5000000596046448,
        79.5,
        1.0
      ],
      "name": "FloppyDisk_Red"
    },
    {
      "mesh": 3,
      "name": "FloppyDisk_Red_M_FloppyDisk_0"
    },
    {
      "children": [
        12
      ],
      "matrix": [
        100.0,
        0.0,
        0.0,
        0.0,
        0.0,
        -1.629206793918314e-05,
        -99.99999999999868,
        0.0,
        0.0,
        99.99999999999868,
        -1.629206793918314e-05,
        0.0,
        50.0,
        0.0,
        0.0,
        1.0
      ],
      "name": "RetroComputer"
    },
    {
      "mesh": 4,
      "name": "RetroComputer_M_RetroComputer_0"
    },
    {
      "children": [
        14
      ],
      "matrix": [
        100.0,
        0.0,
        0.0,
        0.0,
        0.0,
        -1.629206793918314e-05,
        -99.99999999999868,
        0.0,
        0.0,
        99.99999999999868,
        -1.629206793918314e-05,
        0.0,
        0.0,
        0.0,
        50.0,
        1.0
      ],
      "name": "RetroKeyboard"
    },
    {
      "mesh": 5,
      "name": "RetroKeyboard_M_RetroKeyboardMouse_0"
    },
    {
      "children": [
        16
      ],
      "matrix": [
        100.0,
        0.0,
        0.0,
        0.0,
        0.0,
        -1.629206793918314e-05,
        -99.99999999999868,
        0.0,
        0.0,
        99.99999999999868,
        -1.629206793918314e-05,
        0.0,
        0.0,
        0.0,
        0.0,
        1.0
      ],
      "name": "RetroMonitor"
    },
    {
      "mesh": 6,
      "name": "RetroMonitor_M_RetroMonitor_0"
    },
    {
      "children": [
        18
      ],
      "matrix": [
        100.0,
        0.0,
        0.0,
        0.0,
        0.0,
        -1.629206793918314e-05,
        -99.99999999999868,
        0.0,
        0.0,
        99.99999999999868,
        -1.629206793918314e-05,
        0.0,
        50.0,
        0.0,
        50.0,
        1.0
      ],
      "name": "RetroMouse"
    },
    {
      "mesh": 7,
      "name": "RetroMouse_M_RetroKeyboardMouse_0"
    }
  ],
  "samplers": [
    {
      "magFilter": 9728,
      "minFilter": 9728,
      "wrapS": 10497,
      "wrapT": 10497
    }
  ],
  "scene": 0,
  "scenes": [
    {
      "name": "Sketchfab_Scene",
      "nodes": [
        0
      ]
    }
  ],
  "textures": [
    {
      "sampler": 0,
      "source": 0
    },
    {
      "sampler": 0,
      "source": 1
    },
    {
      "sampler": 0,
      "source": 2
    },
    {
      "sampler": 0,
      "source": 3
    }
  ]
}
